<svg xmlns="http://www.w3.org/2000/svg" width="86.813" height="40.402" viewBox="0 0 86.813 40.402"><g transform="translate(-323.527 -4.268)"><g transform="translate(288 -60)"><path d="M101.55,99.09a5.239,5.239,0,0,1-5.42,5.15H86.03v-3.78H96.15a1.374,1.374,0,0,0,1.37-1.37c0-.87-.54-1.4-1.62-1.57-.06-.01-6.19-.9-6.24-.91a5.262,5.262,0,0,1,.73-10.49h10.1V89.9H90.37A1.374,1.374,0,0,0,89,91.27c0,.87.55,1.4,1.62,1.57.06.01,6.19.9,6.24.91A5.241,5.241,0,0,1,101.55,99.09ZM79.9,86.12V96.9a4.075,4.075,0,1,1-8.15,0V86.12H67.82V96.67a8,8,0,1,0,16,0V86.12ZM122.34,103a1.255,1.255,0,1,0-1.26,1.24A1.24,1.24,0,0,0,122.34,103Zm-.26,0a.988.988,0,0,1-1,.99.971.971,0,0,1-.99-.98.982.982,0,0,1,1-.99A.971.971,0,0,1,122.08,103Zm-.45-.23c0-.24-.18-.39-.47-.39h-.53v1.18h.26v-.38h.21l.25.38h.31l-.29-.42A.382.382,0,0,0,121.63,102.77Zm-.27.02c0,.1-.07.17-.2.17h-.27v-.35h.26C121.28,102.61,121.36,102.67,121.36,102.79ZM115.87,89.9a3.216,3.216,0,0,0,3.08-3.45v-.33H108a5.239,5.239,0,0,0-5.42,5.15h0v7.82a5.239,5.239,0,0,0,5.42,5.15h10.95v-.33a3.207,3.207,0,0,0-3.08-3.44h-7.9a1.374,1.374,0,0,1-1.37-1.37,1.5,1.5,0,0,1,1.62-1.57h3.42a5.19,5.19,0,0,0,5.29-3.97H108.7a2.423,2.423,0,0,0-2.1,1.17V91.28a1.374,1.374,0,0,1,1.37-1.37h7.9ZM62.15,93.75c-.06-.01-6.18-.9-6.24-.91-1.08-.17-1.62-.7-1.62-1.57a1.374,1.374,0,0,1,1.37-1.37H65.78V86.12H55.68a5.262,5.262,0,0,0-.73,10.49c.06.01,6.19.9,6.24.91,1.08.17,1.62.7,1.62,1.57a1.383,1.383,0,0,1-1.38,1.37h-7.4a3.213,3.213,0,0,0-3.08,3.44v.33H61.4a5.258,5.258,0,0,0,.75-10.48Z" fill="#0b2c40"/></g><g transform="translate(288 -60)"><path d="M72.32,64.79s-.03,1.44-.03,1.6a42.878,42.878,0,0,0-10.68-2.07,27.829,27.829,0,0,0-17.57,4.51l-.23.15a18.244,18.244,0,0,0-7.62,8.49,9.919,9.919,0,0,0-.43,5.62,8.668,8.668,0,0,0,1.3,2.82,8.451,8.451,0,0,0,6.15,3.5c3.5.31,6.15-1.26,7.09-4.2a5.8,5.8,0,0,0-2.48-6.53,5.139,5.139,0,0,0-5.45-.12,3.653,3.653,0,0,0-1.7,3.09,3.4,3.4,0,0,0,3.27,3.36,4.082,4.082,0,0,0,1.24-.21,1.942,1.942,0,0,0,.47-.21l.05-.03.03-.02-.01.01a1.113,1.113,0,0,0,.5-.92,1.757,1.757,0,0,0-.04-.31,1.125,1.125,0,0,0-1.28-.79l-.08.01-.1.03-.15.05a3.571,3.571,0,0,1-.6.09,1.1,1.1,0,0,1-.94-1.1V81.6a1.283,1.283,0,0,1,.2-.66,1.953,1.953,0,0,1,1.81-.68,3.05,3.05,0,0,1,2.6,1.85,3.173,3.173,0,0,1-.35,3.33c-.74.95-2.04,1.35-3.78,1.16a5.3,5.3,0,0,1-4.19-7.53c1.78-3.35,5.13-3.32,6.97-3,2.61.45,6.57,2.79,8.06,8.22h3.62c-.45-1.38-.71-5.39,3.37-5.39,4.46,0,5.03,3.14,6.29,5.39h3.83a6.458,6.458,0,0,1-1.49-4.4c.33-1.99,1.92-1.81,4.11-1.56a23.7,23.7,0,0,0,2.38.19,15.478,15.478,0,0,0,6.06-1.1,7.833,7.833,0,0,0,2.06-1.1,1.191,1.191,0,0,0,.3-.53l.05-.14a7.016,7.016,0,0,0,.2-.73c.1-.4-.25-.19-.25-.19a9.212,9.212,0,0,1-4.01,1.23c-1.99.04-6.01-2-6.43-2.22l-.04-.04c-.1-.24-.7-1.67-.83-1.97,2.89,1.9,5.29,2.96,7.12,3.12a6.557,6.557,0,0,0,4.32-1.41c.07-.05.34-.23.28-.45-.27-.93-1.18-4.04-1.95-4.82a3.165,3.165,0,0,0-.76-.66c-2.92-1.7-9.85-2.73-10.18-2.78C72.4,64.73,72.32,64.71,72.32,64.79Zm4.76,5.73a2.924,2.924,0,0,1,.94-2.06A2.958,2.958,0,0,1,83,70.73a2.962,2.962,0,0,1-5.92-.21Z" fill="#4cb85d"/><path d="M80.12,68.53a2.066,2.066,0,1,0,1.34,3.58,2.036,2.036,0,0,0,.65-1.44A2.06,2.06,0,0,0,80.12,68.53Zm.34,2.27c-.51,0-.92-.27-.92-.61s.41-.61.92-.61.92.27.92.61S80.97,70.8,80.46,70.8Z" fill="#4cb85d"/></g></g></svg>